<?xml version="1.0" encoding="iso-8859-1"?>
<!-- Generator: Adobe Illustrator 19.0.0, SVG Export Plug-In . SVG Version: 6.00 Build 0)  -->
<svg version="1.1" id="Layer_1" xmlns="http://www.w3.org/2000/svg" xmlns:xlink="http://www.w3.org/1999/xlink" x="0px" y="0px"
	 viewBox="0 0 470 470" style="enable-background:new 0 0 470 470;" xml:space="preserve">
<g>
	<polygon points="256.632,202.286 212.482,202.286 226.446,305.173 242.668,305.173 	"/>
	<rect x="154.758" y="335.173" width="160.484" height="39.584"/>
	<path d="M235,0C144.908,0,71.874,73.034,71.874,163.126c0,60.921,33.401,114.034,82.884,142.047l41.413,0l-18.036-132.887h112.845
		l-18.036,132.887h42.299c49.483-28.013,82.883-81.126,82.883-142.047C398.126,73.034,325.092,0,235,0z"/>
	<path d="M235,470c39.187,0,71.794-28.098,78.821-65.242H156.179C163.206,441.902,195.813,470,235,470z"/>
</g>
<g>
</g>
<g>
</g>
<g>
</g>
<g>
</g>
<g>
</g>
<g>
</g>
<g>
</g>
<g>
</g>
<g>
</g>
<g>
</g>
<g>
</g>
<g>
</g>
<g>
</g>
<g>
</g>
<g>
</g>
</svg>
